<svg width="1917" height="983" viewBox="0 0 1917 983" fill="none" xmlns="http://www.w3.org/2000/svg">
<path d="M1.64455 -1081L1.64451 982M138.338 -1081L138.338 982M275.032 -1081L275.032 982M411.725 -1081L411.725 982M548.419 -1081L548.419 982M685.113 -1081L685.113 982M821.806 -1081L821.806 982M958.5 -1081L958.5 982M1095.19 -1081L1095.19 982M1231.89 -1081L1231.89 982M1368.58 -1081V982M1505.27 -1081V982M1641.97 -1081V982M1778.66 -1081V982M1915.35 -1081V982M1916 -932L1.00008 -932M1916 -795.286L1.00008 -795.286M1916 -658.571L1.00007 -658.571M1916 -521.857L1.00007 -521.857M1916 -385.143L1.00006 -385.143M1916 -248.428L1.00005 -248.429M1916 -111.714L1.00005 -111.714M1916 25.0001L1.00004 25M1916 161.714L1.00004 161.714M1916 298.429L1.00003 298.428M1916 435.143L1.00002 435.143M1916 571.857L1.00002 571.857M1916 708.571L1.00001 708.571M1916 845.286L1.00001 845.286M1916 982L1 982" stroke="url(#paint0_radial_39_14)" stroke-width="2"/>
<defs>
<radialGradient id="paint0_radial_39_14" cx="0" cy="0" r="1" gradientUnits="userSpaceOnUse" gradientTransform="translate(958.5 25) rotate(90) scale(957 957.5)">
<stop stop-color="#2F2F2F"/>
<stop offset="1" stop-color="#161616"/>
</radialGradient>
</defs>
</svg>
